solid 
 facet normal -2.039543e-01  0.000000e+00  9.789804e-01
   outer loop
     vertex  2.700000e+00  2.775558e-17  2.500000e-01
     vertex  1.500000e+00  1.000000e-01  2.273737e-15
     vertex  1.500000e+00  2.524355e-31  2.273737e-15
   endloop
 endfacet
 facet normal -2.039543e-01  0.000000e+00  9.789804e-01
   outer loop
     vertex  2.700000e+00  2.775558e-17  2.500000e-01
     vertex  2.700000e+00  1.000000e-01  2.500000e-01
     vertex  1.500000e+00  1.000000e-01  2.273737e-15
   endloop
 endfacet
 facet normal -1.000000e+00  0.000000e+00 -0.000000e+00
   outer loop
     vertex  2.700000e+00  4.440892e-17  4.000000e-01
     vertex  2.700000e+00  1.000000e-01  2.500000e-01
     vertex  2.700000e+00  2.775558e-17  2.500000e-01
   endloop
 endfacet
 facet normal -1.000000e+00  0.000000e+00  0.000000e+00
   outer loop
     vertex  2.700000e+00  4.440892e-17  4.000000e-01
     vertex  2.700000e+00  1.000000e-01  4.000000e-01
     vertex  2.700000e+00  1.000000e-01  2.500000e-01
   endloop
 endfacet
 facet normal  0.000000e+00  0.000000e+00  1.000000e+00
   outer loop
     vertex  2.800000e+00  4.440892e-17  4.000000e-01
     vertex  2.700000e+00  1.000000e-01  4.000000e-01
     vertex  2.700000e+00  4.440892e-17  4.000000e-01
   endloop
 endfacet
 facet normal  0.000000e+00 -0.000000e+00  1.000000e+00
   outer loop
     vertex  2.800000e+00  4.440892e-17  4.000000e-01
     vertex  2.800000e+00  1.000000e-01  4.000000e-01
     vertex  2.700000e+00  1.000000e-01  4.000000e-01
   endloop
 endfacet
 facet normal  9.701425e-01  0.000000e+00  2.425356e-01
   outer loop
     vertex  2.850000e+00  2.220446e-17  2.000000e-01
     vertex  2.800000e+00  1.000000e-01  4.000000e-01
     vertex  2.800000e+00  4.440892e-17  4.000000e-01
   endloop
 endfacet
 facet normal  9.701425e-01 -0.000000e+00  2.425356e-01
   outer loop
     vertex  2.850000e+00  2.220446e-17  2.000000e-01
     vertex  2.850000e+00  1.000000e-01  2.000000e-01
     vertex  2.800000e+00  1.000000e-01  4.000000e-01
   endloop
 endfacet
 facet normal  0.000000e+00  0.000000e+00  1.000000e+00
   outer loop
     vertex  3.000000e+00  2.220446e-17  2.000000e-01
     vertex  2.850000e+00  1.000000e-01  2.000000e-01
     vertex  2.850000e+00  2.220446e-17  2.000000e-01
   endloop
 endfacet
 facet normal  0.000000e+00 -0.000000e+00  1.000000e+00
   outer loop
     vertex  3.000000e+00  2.220446e-17  2.000000e-01
     vertex  3.000000e+00  1.000000e-01  2.000000e-01
     vertex  2.850000e+00  1.000000e-01  2.000000e-01
   endloop
 endfacet
 facet normal  1.000000e+00  0.000000e+00  0.000000e+00
   outer loop
     vertex  3.000000e+00  2.524355e-31  2.273737e-15
     vertex  3.000000e+00  1.000000e-01  2.000000e-01
     vertex  3.000000e+00  2.220446e-17  2.000000e-01
   endloop
 endfacet
 facet normal  1.000000e+00  0.000000e+00  0.000000e+00
   outer loop
     vertex  3.000000e+00  2.524355e-31  2.273737e-15
     vertex  3.000000e+00  1.000000e-01  2.273737e-15
     vertex  3.000000e+00  1.000000e-01  2.000000e-01
   endloop
 endfacet
 facet normal  0.000000e+00  0.000000e+00 -1.000000e+00
   outer loop
     vertex  1.500000e+00  2.524355e-31  2.273737e-15
     vertex  3.000000e+00  1.000000e-01  2.273737e-15
     vertex  3.000000e+00  2.524355e-31  2.273737e-15
   endloop
 endfacet
 facet normal  0.000000e+00  0.000000e+00 -1.000000e+00
   outer loop
     vertex  1.500000e+00  2.524355e-31  2.273737e-15
     vertex  1.500000e+00  1.000000e-01  2.273737e-15
     vertex  3.000000e+00  1.000000e-01  2.273737e-15
   endloop
 endfacet
 facet normal  0.000000e+00 -1.000000e+00  1.110223e-16
   outer loop
     vertex  3.000000e+00  2.524355e-31  2.273737e-15
     vertex  2.700000e+00  2.775558e-17  2.500000e-01
     vertex  1.500000e+00  2.524355e-31  2.273737e-15
   endloop
 endfacet
 facet normal  0.000000e+00 -1.000000e+00  1.110223e-16
   outer loop
     vertex  2.850000e+00  2.220446e-17  2.000000e-01
     vertex  2.700000e+00  2.775558e-17  2.500000e-01
     vertex  3.000000e+00  2.524355e-31  2.273737e-15
   endloop
 endfacet
 facet normal  0.000000e+00 -1.000000e+00  1.110223e-16
   outer loop
     vertex  2.800000e+00  4.440892e-17  4.000000e-01
     vertex  2.700000e+00  4.440892e-17  4.000000e-01
     vertex  2.700000e+00  2.775558e-17  2.500000e-01
   endloop
 endfacet
 facet normal  0.000000e+00 -1.000000e+00  1.110223e-16
   outer loop
     vertex  2.800000e+00  4.440892e-17  4.000000e-01
     vertex  2.700000e+00  2.775558e-17  2.500000e-01
     vertex  2.850000e+00  2.220446e-17  2.000000e-01
   endloop
 endfacet
 facet normal  0.000000e+00 -1.000000e+00  1.110223e-16
   outer loop
     vertex  3.000000e+00  2.220446e-17  2.000000e-01
     vertex  2.850000e+00  2.220446e-17  2.000000e-01
     vertex  3.000000e+00  2.524355e-31  2.273737e-15
   endloop
 endfacet
 facet normal  0.000000e+00  1.000000e+00 -1.110223e-16
   outer loop
     vertex  3.000000e+00  1.000000e-01  2.273737e-15
     vertex  1.500000e+00  1.000000e-01  2.273737e-15
     vertex  2.700000e+00  1.000000e-01  2.500000e-01
   endloop
 endfacet
 facet normal -6.167906e-17  1.000000e+00 -1.850372e-16
   outer loop
     vertex  2.850000e+00  1.000000e-01  2.000000e-01
     vertex  3.000000e+00  1.000000e-01  2.273737e-15
     vertex  2.700000e+00  1.000000e-01  2.500000e-01
   endloop
 endfacet
 facet normal  0.000000e+00  1.000000e+00 -9.251859e-17
   outer loop
     vertex  2.800000e+00  1.000000e-01  4.000000e-01
     vertex  2.700000e+00  1.000000e-01  2.500000e-01
     vertex  2.700000e+00  1.000000e-01  4.000000e-01
   endloop
 endfacet
 facet normal -2.523234e-17  1.000000e+00 -7.569702e-17
   outer loop
     vertex  2.800000e+00  1.000000e-01  4.000000e-01
     vertex  2.850000e+00  1.000000e-01  2.000000e-01
     vertex  2.700000e+00  1.000000e-01  2.500000e-01
   endloop
 endfacet
 facet normal  0.000000e+00  1.000000e+00 -1.387779e-16
   outer loop
     vertex  3.000000e+00  1.000000e-01  2.000000e-01
     vertex  3.000000e+00  1.000000e-01  2.273737e-15
     vertex  2.850000e+00  1.000000e-01  2.000000e-01
   endloop
 endfacet
endsolid
