solid 
 facet normal -2.425356e-01  0.000000e+00  9.701425e-01
   outer loop
     vertex  2.700000e+00  3.885781e-17  3.500000e-01
     vertex  1.300000e+00  1.000000e-01  2.273737e-15
     vertex  1.300000e+00  2.524355e-31  2.273737e-15
   endloop
 endfacet
 facet normal -2.425356e-01  0.000000e+00  9.701425e-01
   outer loop
     vertex  2.700000e+00  3.885781e-17  3.500000e-01
     vertex  2.700000e+00  1.000000e-01  3.500000e-01
     vertex  1.300000e+00  1.000000e-01  2.273737e-15
   endloop
 endfacet
 facet normal  1.000000e+00  0.000000e+00  0.000000e+00
   outer loop
     vertex  2.700000e+00  3.885781e-17  3.500000e-01
     vertex  2.700000e+00  2.775558e-17  2.500000e-01
     vertex  2.700000e+00  1.000000e-01  2.500000e-01
   endloop
 endfacet
 facet normal  1.000000e+00 -0.000000e+00  0.000000e+00
   outer loop
     vertex  2.700000e+00  3.885781e-17  3.500000e-01
     vertex  2.700000e+00  1.000000e-01  2.500000e-01
     vertex  2.700000e+00  1.000000e-01  3.500000e-01
   endloop
 endfacet
 facet normal  2.039543e-01  0.000000e+00 -9.789804e-01
   outer loop
     vertex  2.700000e+00  2.775558e-17  2.500000e-01
     vertex  1.500000e+00  2.524355e-31  2.273737e-15
     vertex  1.500000e+00  1.000000e-01  2.273737e-15
   endloop
 endfacet
 facet normal  2.039543e-01  0.000000e+00 -9.789804e-01
   outer loop
     vertex  2.700000e+00  2.775558e-17  2.500000e-01
     vertex  1.500000e+00  1.000000e-01  2.273737e-15
     vertex  2.700000e+00  1.000000e-01  2.500000e-01
   endloop
 endfacet
 facet normal -0.000000e+00  0.000000e+00 -1.000000e+00
   outer loop
     vertex  1.500000e+00  1.000000e-01  2.273737e-15
     vertex  1.300000e+00  2.524355e-31  2.273737e-15
     vertex  1.300000e+00  1.000000e-01  2.273737e-15
   endloop
 endfacet
 facet normal  0.000000e+00 -0.000000e+00 -1.000000e+00
   outer loop
     vertex  1.500000e+00  1.000000e-01  2.273737e-15
     vertex  1.500000e+00  2.524355e-31  2.273737e-15
     vertex  1.300000e+00  2.524355e-31  2.273737e-15
   endloop
 endfacet
 facet normal  0.000000e+00 -1.000000e+00  1.110223e-16
   outer loop
     vertex  2.700000e+00  3.885781e-17  3.500000e-01
     vertex  1.500000e+00  2.524355e-31  2.273737e-15
     vertex  2.700000e+00  2.775558e-17  2.500000e-01
   endloop
 endfacet
 facet normal  0.000000e+00 -1.000000e+00  1.110223e-16
   outer loop
     vertex  1.300000e+00  2.524355e-31  2.273737e-15
     vertex  1.500000e+00  2.524355e-31  2.273737e-15
     vertex  2.700000e+00  3.885781e-17  3.500000e-01
   endloop
 endfacet
 facet normal  5.782412e-18  1.000000e+00 -1.387779e-16
   outer loop
     vertex  2.700000e+00  1.000000e-01  3.500000e-01
     vertex  2.700000e+00  1.000000e-01  2.500000e-01
     vertex  1.500000e+00  1.000000e-01  2.273737e-15
   endloop
 endfacet
 facet normal  0.000000e+00  1.000000e+00 -1.189525e-16
   outer loop
     vertex  1.300000e+00  1.000000e-01  2.273737e-15
     vertex  2.700000e+00  1.000000e-01  3.500000e-01
     vertex  1.500000e+00  1.000000e-01  2.273737e-15
   endloop
 endfacet
endsolid
